<svg id="Capa_1" enable-background="new 0 0 498.506 498.506" height="512" viewBox="0 0 498.506 498.506" width="512" xmlns="http://www.w3.org/2000/svg"><g><path d="m344.348 280.206-1.745-43.106c-.042-1.026.019-2.054.182-3.068l32.483-202.489c2.043-12.732-6.654-24.699-19.395-26.688-11.867-1.852-23.195 5.626-26.153 17.267l-40.388 158.906c-2.529 9.949-16.682 9.896-19.135-.072l-40.173-163.234c-3.109-12.635-15.971-20.268-28.551-16.944l-1.599.422c-11.863 3.134-19.257 14.938-16.9 26.979l40.329 206.032 16.252 92.274 110.213-9.359z" fill="#eb9c8d"/><g><path d="m246.246 233.303-40.329-206.032c-1.989-10.162 2.976-20.156 11.701-24.912-4.839-2.36-10.524-3.066-16.146-1.581l-1.599.422c-11.863 3.134-19.257 14.938-16.9 26.979l40.329 206.032 16.251 92.274 22.763-1.933z" fill="#d78878"/></g><g><g><g id="XMLID_407_"><g><path d="m337.394 253.546v231.117c0 7.133-5.759 12.928-12.892 12.972l-141.846.871c-7.195.044-13.052-5.776-13.052-12.972v-22.888l-11.56-17.82c-10.66-16.43-16.33-35.59-16.33-55.17v-136.11z" fill="#eb9c8d"/></g></g></g><g fill="#d78878"><path d="m200.706 485.534v-18.444c0-2.901-.84-5.739-2.419-8.172l-9.141-14.092c-10.66-16.43-16.33-35.59-16.33-55.17v-136.11h-31.102v136.11c0 19.58 5.67 38.74 16.33 55.17l11.56 17.82v22.888c0 7.195 5.856 13.016 13.052 12.972l28.964-.178c-6.181-.988-10.914-6.328-10.914-12.794z"/><path d="m264.698 253.546h-70.574c-.295 2.094-.45 4.212-.45 6.341 0 17.452 10.148 33.623 25.855 41.196l32.382 15.609c-.567.566-1.126 1.14-1.676 1.721-21.784 23.012-26.439 57.434-12.446 85.865 7.054 14.333 16.898 28.962 27.691 28.962h71.914v-53.781z"/><path d="m141.714 341.725c7.043 5.528 15.849 8.72 25.169 8.72 5.669 0 11.188-1.164 16.403-3.459 8.11-3.569 14.47-9.483 18.655-16.592 3.871 1.13 7.936 1.733 12.098 1.733 6.005 0 11.852-1.233 17.377-3.665 10.557-4.646 18.672-13.125 22.852-23.874 4.18-10.75 3.923-22.484-.723-33.04l-7.921-18.002h-103.91z"/></g><g id="XMLID_409_"><path d="m190.444 299.307c5.73 13.02-.18 28.22-13.2 33.95s-28.22-.18-33.95-13.2l-24.83-56.43c-5.73-13.02.18-28.22 13.2-33.95 3.37-1.49 6.9-2.19 10.36-2.19 9.9 0 19.35 5.74 23.59 15.39z" fill="#eb9c8d"/><g><path d="m239.816 277.589c6.269 14.245-.197 30.874-14.442 37.143s-30.874-.197-37.143-14.442l-27.166-61.738c-6.269-14.245.197-30.874 14.442-37.143 3.687-1.63 7.549-2.396 11.334-2.396 10.831 0 21.17 6.28 25.809 16.838z" fill="#eb9c8d"/></g></g><g id="XMLID_420_" fill="#d78878"><path d="m163.521 313.692-24.83-56.43c-4.608-10.469-1.671-22.357 6.419-29.589-1.017-.123-2.054-.186-3.086-.186-3.46 0-6.99.7-10.36 2.19-13.02 5.73-18.93 20.93-13.2 33.95l24.83 56.43c5.73 13.02 20.93 18.93 33.95 13.2 2.547-1.121 4.833-2.614 6.802-4.372-8.737-1.057-16.723-6.555-20.525-15.193z"/><path d="m208.458 293.926-27.166-61.738c-5.196-11.807-1.627-25.254 7.852-33.08-.761-.062-1.535-.095-2.304-.095-3.785 0-7.647.766-11.334 2.396-14.245 6.269-20.711 22.899-14.442 37.143l27.166 61.738c6.269 14.245 22.899 20.711 37.144 14.442 2.435-1.072 4.654-2.455 6.61-4.069-9.973-.819-19.211-6.934-23.526-16.737z"/></g><g id="XMLID_404_"><g><path d="m249.663 261.41 95.331 23.196-.646-4.401-.714-17.636c-1.148-.576-2.311-1.132-3.488-1.666l-83.969-38.059c-5.32-2.412-10.969-3.635-16.79-3.635-.735 0-1.468.026-2.198.066z" fill="#d78878"/><path d="m237.663 304.273c4.982-7.696 6.122-17.666 2.153-26.684l-22.742-51.684c-5.065 3.316-9.412 7.755-12.603 13.075-3.792 6.322-5.797 13.551-5.797 20.907 0 15.545 9.038 29.947 23.026 36.692z" fill="#d78878"/><path d="m280.052 319.526c2.207-1.661 3.131-4.53 2.307-7.167l-.876-2.803c-.19-.61-.63-1.11-1.2-1.39l-52.07-25.1c-9.25-4.46-14.54-13.67-14.54-23.18 0-4.49 1.17-9.04 3.66-13.19 6.72-11.2 20.76-15.58 32.65-10.19l83.97 38.06c31.63 14.33 50.84 46.99 48 81.6l-2.16 26.39c-1.81 21.96-10.78 42.71-25.55 59.06l-16.85 18.67v1.33h-23.63c-36.975 0-66.95-29.975-66.95-66.95v-17.64c0-20.46 9.62-39.74 25.98-52.04z" fill="#eb9c8d"/></g></g></g></g></svg>